<?xml version="1.0" encoding="iso-8859-1"?>
<!-- Generator: Adobe Illustrator 19.0.0, SVG Export Plug-In . SVG Version: 6.00 Build 0)  -->
<svg version="1.1" id="Capa_1" xmlns="http://www.w3.org/2000/svg" xmlns:xlink="http://www.w3.org/1999/xlink" x="0px" y="0px"
	 viewBox="0 0 496 496" style="enable-background:new 0 0 496 496;" xml:space="preserve">
<g>
	<g>
		<path d="M275.44,46.184L248,0.448l-27.44,45.728C217.576,51.152,216,56.84,216,62.648V64c0,17.648,14.352,32,32,32
			s32-14.352,32-32v-1.352C280,56.84,278.424,51.144,275.44,46.184z M264,64c0,8.824-7.176,16-16,16c-8.824,0-16-7.176-16-16v-1.352
			c0-2.904,0.792-5.744,2.28-8.232L248,31.552l13.72,22.872c1.488,2.48,2.28,5.32,2.28,8.224V64z"/>
	</g>
</g>
<g>
	<g>
		<path d="M91.44,214.184L64,168.448l-27.44,45.728C33.576,219.152,32,224.84,32,230.648V232c0,17.648,14.352,32,32,32
			s32-14.352,32-32v-1.352C96,224.84,94.424,219.144,91.44,214.184z M80,232c0,8.824-7.176,16-16,16s-16-7.176-16-16v-1.352
			c0-2.904,0.792-5.744,2.28-8.232L64,199.552l13.72,22.872c1.488,2.48,2.28,5.32,2.28,8.224V232z"/>
	</g>
</g>
<g>
	<g>
		<path d="M459.44,134.184L432,88.448l-27.44,45.728c-2.984,4.976-4.56,10.664-4.56,16.472V152c0,17.648,14.352,32,32,32
			s32-14.352,32-32v-1.352C464,144.84,462.424,139.144,459.44,134.184z M448,152c0,8.824-7.176,16-16,16c-8.824,0-16-7.176-16-16
			v-1.352c0-2.904,0.792-5.744,2.28-8.232L432,119.552l13.72,22.872c1.488,2.48,2.28,5.32,2.28,8.224V152z"/>
	</g>
</g>
<g>
	<g>
		<path d="M493.8,305.456l-33.664-72.92c-9.12-19.768-29.08-32.536-50.848-32.536H226.504c-19.232,0-37.312,7.488-50.904,21.088
			L116.688,280H72c-39.704,0-72,32.304-72,72v56c0,13.232,10.768,24,24,24h16.472C44.464,467.944,75,496,112,496
			s67.536-28.056,71.528-64h128.944C316.464,467.944,347,496,384,496s67.536-28.056,71.528-64H472c13.232,0,24-10.768,24-24v-92.488
			C496,312.056,495.232,308.584,493.8,305.456z M112,480c-30.872,0-56-25.12-56-56s25.128-56,56-56s56,25.12,56,56
			S142.872,480,112,480z M384,480c-30.872,0-56-25.12-56-56s25.128-56,56-56s56,25.12,56,56S414.872,480,384,480z M480,328h-16v16
			h16v16h-16v16h16v32c0,4.408-3.584,8-8,8h-16.472C451.536,380.056,421,352,384,352s-67.536,28.056-71.528,64H296v-96h-16v96
			h-96.472C179.536,380.056,149,352,112,352s-67.536,28.056-71.528,64H24c-4.416,0-8-3.592-8-8v-56c0-30.88,25.128-56,56-56h51.312
			l63.6-63.6c10.576-10.576,24.632-16.4,39.592-16.4h182.784c15.544,0,29.8,9.12,36.312,23.24l33.664,72.92
			c0.488,1.04,0.736,2.2,0.736,3.352V328z"/>
	</g>
</g>
<g>
	<g>
		<path d="M32,352h16c0-13.232,10.768-24,24-24v-16C49.944,312,32,329.944,32,352z"/>
	</g>
</g>
<g>
	<g>
		<rect x="216" y="320" width="32" height="16"/>
	</g>
</g>
<g>
	<g>
		<path d="M112,392c-17.648,0-32,14.352-32,32s14.352,32,32,32s32-14.352,32-32S129.648,392,112,392z M112,440
			c-8.824,0-16-7.176-16-16c0-8.824,7.176-16,16-16c8.824,0,16,7.176,16,16C128,432.824,120.824,440,112,440z"/>
	</g>
</g>
<g>
	<g>
		<path d="M384,392c-17.648,0-32,14.352-32,32s14.352,32,32,32s32-14.352,32-32S401.648,392,384,392z M384,440
			c-8.824,0-16-7.176-16-16c0-8.824,7.176-16,16-16c8.824,0,16,7.176,16,16C400,432.824,392.824,440,384,440z"/>
	</g>
</g>
<g>
	<g>
		<path d="M431.072,245.952C427.168,237.48,418.624,232,409.288,232H376v16h33.288c3.112,0,5.96,1.824,7.256,4.648L432.864,288
			H176.56l32.976-32.976C214,250.56,220.184,248,226.504,248H360v-16H226.504c-10.528,0-20.832,4.272-28.28,11.712L137.936,304
			H457.88L431.072,245.952z"/>
	</g>
</g>
<g>
	<g>
		<rect width="16" height="16"/>
	</g>
</g>
<g>
	<g>
		<rect x="56" y="96" width="16" height="16"/>
	</g>
</g>
<g>
	<g>
		<rect x="152" y="40" width="16" height="16"/>
	</g>
</g>
<g>
	<g>
		<rect x="120" y="208" width="16" height="16"/>
	</g>
</g>
<g>
	<g>
		<rect x="240" y="136" width="16" height="16"/>
	</g>
</g>
<g>
	<g>
		<rect x="344" y="104" width="16" height="16"/>
	</g>
</g>
<g>
	<g>
		<rect x="376" width="16" height="16"/>
	</g>
</g>
<g>
	<g>
		<rect x="480" y="56" width="16" height="16"/>
	</g>
</g>
<g>
</g>
<g>
</g>
<g>
</g>
<g>
</g>
<g>
</g>
<g>
</g>
<g>
</g>
<g>
</g>
<g>
</g>
<g>
</g>
<g>
</g>
<g>
</g>
<g>
</g>
<g>
</g>
<g>
</g>
</svg>
